# Blender v3.1.2 OBJ File: ''
# www.blender.org
mtllib half-block-corner-inside-2.mtl
o Cube.006
v 0.500000 0.500000 -0.000000
v -0.500000 0.000000 0.500000
v 0.500000 -0.000000 0.500000
v -0.500000 0.500000 -0.500000
v 0.500000 -0.500000 -0.500000
v -0.500000 -0.500000 -0.500000
v 0.500000 -0.500000 0.500000
v -0.500000 -0.500000 -0.500000
v 0.500000 -0.500000 -0.500000
v 0.500000 0.500000 -0.000000
v -0.500000 0.500000 0.000000
v -0.500000 0.000000 0.500000
v -0.500000 0.500000 -0.500000
v 0.500000 0.500000 -0.500000
v 0.500000 -0.500000 -0.500000
v 0.500000 -0.500000 0.500000
v -0.500000 -0.500000 0.500000
v -0.500000 -0.500000 -0.500000
v 0.500000 -0.000000 0.500000
v 0.500000 -0.500000 -0.500000
v 0.500000 0.500000 -0.000000
v 0.500000 -0.000000 0.500000
v -0.500000 0.000000 0.500000
v -0.500000 -0.500000 0.500000
v -0.500000 0.000000 0.500000
v -0.500000 0.500000 0.000000
v -0.500000 -0.500000 -0.500000
v 0.500000 0.500000 -0.500000
v -0.500000 0.500000 -0.500000
v -0.500000 0.500000 0.000000
v 0.500000 0.500000 -0.500000
v -0.500000 0.500000 0.000000
v 0.500000 0.500000 -0.000000
v 0.500000 -0.000000 0.500000
v -0.500000 -0.500000 0.500000
v 0.500000 -0.500000 0.500000
v 0.500000 -0.500000 0.500000
v 0.500000 -0.500000 -0.500000
v 0.500000 -0.000000 0.500000
v 0.500000 0.500000 -0.000000
v 0.500000 -0.500000 -0.500000
v 0.500000 0.500000 -0.500000
v -0.500000 0.500000 0.000000
v -0.500000 0.500000 -0.500000
v -0.500000 -0.500000 -0.500000
v -0.500000 -0.500000 0.500000
v -0.500000 0.000000 0.500000
v -0.500000 -0.500000 -0.500000
vt 0.978494 0.999916
vt 0.271506 0.000084
vt 0.271506 0.999916
vt 0.000000 1.000000
vt 1.000000 0.000000
vt 1.000000 1.000000
vt 1.000000 0.000000
vt 0.000000 1.000000
vt 0.000000 0.000000
vt 1.000000 1.000000
vt 1.000000 0.000000
vt 0.250000 0.000000
vt 0.000000 1.000000
vt 0.000000 0.000000
vt 1.000000 0.000000
vt 1.000000 0.000000
vt 1.000000 1.000000
vt 0.000000 1.000000
vt 0.500000 1.000000
vt 1.000000 0.000000
vt 0.000000 0.500000
vt 0.000000 1.000000
vt 0.000000 0.000000
vt 0.406250 0.000000
vt 0.500000 1.000000
vt 0.000000 0.500000
vt 1.000000 0.000000
vt 0.500000 0.999929
vt 0.500000 0.000071
vt 0.000071 0.000071
vt 0.500000 1.000000
vt 0.000000 0.000000
vt 0.000000 1.000000
vt 0.000000 1.000000
vt 0.437500 0.000000
vt 0.437500 1.000000
vt 1.000000 1.000000
vt 1.000000 0.000000
vt 0.500000 1.000000
vt 0.000000 0.500000
vt 1.000000 0.000000
vt 0.000000 0.000000
vt 0.000000 0.500000
vt 0.000000 0.000000
vt 1.000000 0.000000
vt 1.000000 1.000000
vt 0.500000 1.000000
vt 1.000000 0.000000
vn 0.0000 0.7071 0.7071
vn -0.0000 0.0000 -1.0000
vn -0.0000 -1.0000 0.0000
vn 1.0000 -0.0000 -0.0000
vn 0.0000 -0.0000 1.0000
vn -1.0000 0.0000 0.0000
vn 0.0000 1.0000 -0.0000
usemtl Material.006
s 1
f 1/1/1 2/2/1 3/3/1
f 4/4/2 5/5/2 6/6/2
f 7/7/3 8/8/3 9/9/3
f 10/10/1 11/11/1 12/12/1
f 13/13/2 14/14/2 15/15/2
f 16/16/3 17/17/3 18/18/3
f 19/19/4 20/20/4 21/21/4
f 22/22/5 23/23/5 24/24/5
f 25/25/6 26/26/6 27/27/6
f 28/28/7 29/29/7 30/30/7
f 31/31/7 32/32/7 33/33/7
f 34/34/5 35/35/5 36/36/5
f 37/37/4 38/38/4 39/39/4
f 40/40/4 41/41/4 42/42/4
f 43/43/6 44/44/6 45/45/6
f 46/46/6 47/47/6 48/48/6
