# Blender v3.1.2 OBJ File: 'angled04.blend'
# www.blender.org
mtllib angled03.mtl
o Cube.002
v -0.500000 0.500000 0.500000
v -0.500000 -0.500000 -0.500000
v -0.500000 -0.500000 0.500000
v -0.500000 0.500000 -0.500000
v 0.500000 -0.500000 -0.500000
v -0.500000 -0.500000 -0.500000
v 0.500000 -0.500000 0.500000
v -0.500000 -0.500000 -0.500000
v 0.500000 -0.500000 -0.500000
v 0.500000 -0.500000 0.500000
v -0.500000 0.500000 0.500000
v -0.500000 -0.500000 0.500000
v -0.500000 0.500000 0.500000
v -0.500000 0.500000 -0.500000
v -0.500000 -0.500000 -0.500000
v -0.500000 0.500000 -0.500000
v 0.500000 0.500000 -0.500000
v 0.500000 -0.500000 -0.500000
v -0.500000 0.500000 0.500000
v 0.500000 -0.500000 0.500000
v 0.500000 0.500000 -0.500000
v -0.500000 0.500000 0.500000
v 0.500000 0.500000 -0.500000
v -0.500000 0.500000 -0.500000
v 0.500000 -0.500000 0.500000
v -0.500000 -0.500000 0.500000
v -0.500000 -0.500000 -0.500000
v 0.500000 -0.500000 -0.500000
v 0.500000 0.500000 -0.500000
v 0.500000 -0.500000 0.500000
vt 0.000000 0.999859
vt 1.000000 -0.000000
vt 0.999929 0.999929
vt 0.000071 0.999859
vt 1.000071 0.000000
vt 1.000000 0.999929
vt 1.000000 0.000071
vt 0.000000 0.999929
vt 0.999929 1.000000
vt -0.000000 1.000000
vt 1.000000 0.000141
vt 0.000071 0.000071
vt 1.000000 0.999929
vt 1.000071 0.000000
vt -0.000000 0.000071
vt 1.000071 0.999929
vt 1.000000 0.000000
vt 0.000071 0.000071
vt 0.865957 0.000093
vt 0.000093 0.500000
vt 0.865957 0.999907
vt 0.500000 0.000071
vt 0.500000 0.999929
vt 0.000071 0.500000
vt 1.000000 0.000141
vt 0.000071 0.000071
vt 0.000000 1.000000
vt 0.000071 0.999929
vt 1.000000 0.999859
vt -0.000000 0.000000
vn -1.0000 -0.0000 0.0000
vn -0.0000 -0.0000 -1.0000
vn 0.0000 -1.0000 -0.0000
vn 0.0000 0.0000 1.0000
vn 0.5774 0.5774 0.5774
vn -0.0000 1.0000 0.0000
vn 1.0000 0.0000 -0.0000
usemtl Material.002
s 1
f 1/1/1 2/2/1 3/3/1
f 4/4/2 5/5/2 6/6/2
f 7/7/3 8/8/3 9/9/3
f 10/10/4 11/11/4 12/12/4
f 13/13/1 14/14/1 15/15/1
f 16/16/2 17/17/2 18/18/2
f 19/19/5 20/20/5 21/21/5
f 22/22/6 23/23/6 24/24/6
f 25/25/3 26/26/3 27/27/3
f 28/28/7 29/29/7 30/30/7
