# Blender v3.1.2 OBJ File: 'angled04.blend'
# www.blender.org
mtllib custom1.mtl
o Cube.005
v -0.500000 -0.500000 -0.500000
v 0.500000 -0.500000 -0.500000
v -0.500000 -0.500000 0.500000
v -0.500000 0.500000 -0.500000
v 0.500000 -0.500000 -0.500000
v 0.500000 -0.500000 -0.500000
v -0.500000 -0.500000 0.500000
v -0.500000 -0.500000 0.500000
v -0.500000 -0.500000 -0.500000
v -0.500000 -0.500000 -0.500000
v -0.500000 0.500000 -0.500000
v -0.500000 0.500000 -0.500000
vt 1.000000 1.000000
vt 0.000000 0.000000
vt 1.000000 0.000000
vt 0.000000 1.000000
vt 1.000000 0.000000
vt 1.000000 1.000000
vt 0.000000 1.000000
vt 1.000000 0.500000
vt 0.000000 0.000000
vt 1.000000 1.000000
vt 1.000000 0.000000
vt 0.500000 0.500000
vn -1.0000 0.0000 0.0000
vn 0.0000 0.0000 -1.0000
vn -0.0000 0.7071 0.7071
vn 0.0000 -1.0000 -0.0000
usemtl Material.005
s 1
f 8/1/1 11/2/1 10/3/1
f 12/4/2 6/5/2 9/6/2
f 5/7/3 4/8/3 7/9/3
f 2/10/4 3/11/4 1/12/4
