# Blender v3.1.2 OBJ File: 'untitled.blend'
# www.blender.org
mtllib half-block-corner-inside-2.mtl
o Cube.006
v 0.000000 -0.500000 -0.500000
v -0.500000 0.500000 -0.500000
v -0.000000 -0.500000 0.000000
v -0.500000 -0.500000 -0.000000
v -0.500000 -0.500000 -0.500000
v -0.500000 -0.500000 -0.000000
v -0.500000 -0.500000 -0.000000
v -0.500000 -0.500000 -0.500000
v -0.500000 -0.500000 -0.500000
v -0.500000 -0.500000 -0.500000
v 0.000000 -0.500000 -0.500000
v 0.000000 -0.500000 -0.500000
v -0.500000 0.500000 -0.500000
v -0.500000 0.500000 -0.500000
v -0.500000 0.500000 -0.500000
v -0.000000 -0.500000 0.000000
v -0.000000 -0.500000 0.000000
v -0.000000 -0.500000 0.000000
vt 0.500000 0.000000
vt 0.000000 1.000000
vt 0.000000 0.000000
vt 1.000000 1.000000
vt 0.500000 0.000000
vt 1.000000 0.000000
vt 1.000000 0.000000
vt 1.000000 1.000000
vt 0.500000 0.000000
vt 0.500000 0.000000
vt 0.000000 1.000000
vt 0.000000 0.000000
vt 1.000000 0.000000
vt 0.000000 1.000000
vt 1.000000 1.000000
vt 0.000000 0.000000
vt 0.000000 1.000000
vt 1.000000 0.000000
vn -1.0000 0.0000 -0.0000
vn 0.0000 -0.0000 -1.0000
vn 0.8944 0.4472 0.0000
vn 0.0000 0.4472 0.8944
vn -0.0000 -1.0000 0.0000
usemtl Material.006
s 1
f 6/1/1 13/2/1 8/3/1
f 15/4/2 11/5/2 9/6/2
f 12/7/3 14/8/3 18/9/3
f 16/10/4 2/11/4 7/12/4
f 17/13/5 10/14/5 1/15/5
f 4/16/5 5/17/5 3/18/5
