# Blender v3.1.2 OBJ File: 'angled04.blend'
# www.blender.org
mtllib block7.mtl
o Cube.006
v -0.500000 -0.500000 -0.500000
v 0.500000 -0.500000 0.500000
v 0.500000 0.500000 -0.500000
v -0.500000 -0.500000 0.500000
v 0.500000 -0.500000 -0.500000
v 0.500000 -0.000000 0.500000
v -0.500000 0.500000 -0.500000
v -0.500000 -0.000000 0.500000
v 0.500000 -0.500000 -0.500000
v 0.500000 -0.500000 -0.500000
v 0.500000 -0.500000 -0.500000
v 0.500000 -0.500000 -0.500000
v 0.500000 -0.000000 0.500000
v 0.500000 -0.000000 0.500000
v 0.500000 -0.000000 0.500000
v 0.500000 -0.000000 0.500000
v 0.500000 -0.500000 0.500000
v 0.500000 -0.500000 0.500000
v 0.500000 -0.500000 0.500000
v -0.500000 -0.500000 -0.500000
v -0.500000 -0.500000 -0.500000
v -0.500000 -0.500000 -0.500000
v -0.500000 -0.500000 -0.500000
v -0.500000 -0.500000 0.500000
v -0.500000 -0.500000 0.500000
v -0.500000 -0.500000 0.500000
v -0.500000 -0.000000 0.500000
v -0.500000 -0.000000 0.500000
v -0.500000 -0.000000 0.500000
v -0.500000 -0.000000 0.500000
v 0.500000 0.500000 -0.500000
v 0.500000 0.500000 -0.500000
v 0.500000 0.500000 -0.500000
v -0.500000 0.500000 -0.500000
v -0.500000 0.500000 -0.500000
v -0.500000 0.500000 -0.500000
vt 0.978494 0.999916
vt 0.271506 0.000084
vt 0.271506 0.999916
vt 0.000000 1.000000
vt 1.000000 0.000000
vt 1.000000 1.000000
vt 1.000000 0.000000
vt 0.000000 1.000000
vt 0.000000 0.000000
vt 1.000000 1.000000
vt 1.000000 0.000000
vt 0.250000 0.000000
vt 0.000000 1.000000
vt 0.000000 0.000000
vt 1.000000 0.000000
vt 1.000000 0.000000
vt 1.000000 1.000000
vt 0.000000 1.000000
vt 0.500000 1.000000
vt 1.000000 0.000000
vt 0.000000 0.000000
vt 0.000000 1.000000
vt 0.000000 0.000000
vt 0.406250 0.000000
vt 0.500000 1.000000
vt 0.000000 0.000000
vt 1.000000 0.000000
vt 0.000000 1.000000
vt 0.437500 0.000000
vt 0.437500 1.000000
vt 1.000000 1.000000
vt 1.000000 0.000000
vt 0.500000 1.000000
vt 1.000000 1.000000
vt 0.500000 1.000000
vt 1.000000 0.000000
vn -0.0000 0.8944 0.4472
vn 0.0000 0.0000 -1.0000
vn 0.0000 -1.0000 -0.0000
vn 1.0000 -0.0000 0.0000
vn 0.0000 -0.0000 1.0000
vn -1.0000 -0.0000 0.0000
usemtl Material.006
s 1
f 33/1/1 27/2/1 14/3/1
f 35/4/2 11/5/2 21/6/2
f 17/7/3 20/8/3 10/9/3
f 32/10/1 34/11/1 28/12/1
f 36/13/2 31/14/2 12/15/2
f 18/16/3 24/17/3 22/18/3
f 13/19/4 9/20/4 3/21/4
f 15/22/5 29/23/5 25/24/5
f 30/25/6 7/26/6 23/27/6
f 16/28/5 26/29/5 19/30/5
f 2/31/4 5/32/4 6/33/4
f 4/34/6 8/35/6 1/36/6
